<svg xmlns="http://www.w3.org/2000/svg" width="480" height="320" viewBox="0 0 480 320">
  <defs>
    <filter id="noise" x="0" y="0" width="100%" height="100%">
      <feTurbulence type="fractalNoise" baseFrequency="0.9" numOctaves="4" seed="17"/>
      <feColorMatrix type="matrix" values="0 0 0 0 0.05 0 0 0 0 0.26 0 0 0 0 0.13 0 0 0 0.5 0"/>
    </filter>
    <linearGradient id="stripe" x1="0" x2="1">
      <stop offset="0" stop-color="#0f6b36"/>
      <stop offset="0.5" stop-color="#15803d"/>
      <stop offset="1" stop-color="#0d5f32"/>
    </linearGradient>
    <pattern id="mow" width="96" height="320" patternUnits="userSpaceOnUse">
      <rect width="48" height="320" fill="#117039"/>
      <rect x="48" width="48" height="320" fill="#15803d"/>
    </pattern>
  </defs>
  <rect width="480" height="320" fill="url(#stripe)"/>
  <rect width="480" height="320" fill="url(#mow)" opacity="0.38"/>
  <rect width="480" height="320" filter="url(#noise)" opacity="0.55"/>
  <g opacity="0.14" stroke="#d9f99d" stroke-width="1" stroke-linecap="round">
    <path d="M24 20v280M72 0v320M121 18v284M168 0v320M216 20v280M264 0v320M312 18v284M360 0v320M408 20v280M456 0v320"/>
  </g>
  <g opacity="0.16" stroke="#052e16" stroke-width="1" stroke-linecap="round">
    <path d="M14 70c32-9 65-9 98 0s66 9 100 0 68-9 103 0 72 9 108 0"/>
    <path d="M42 180c35-8 70-8 105 0s70 8 105 0 70-8 105 0 70 8 105 0"/>
    <path d="M4 268c40-7 80-7 120 0s80 7 120 0 80-7 120 0 80 7 120 0"/>
  </g>
</svg>
